<?xml version="1.0" encoding="utf-8" standalone="no"?>
<!DOCTYPE svg PUBLIC "-//W3C//DTD SVG 1.1//EN"
  "http://www.w3.org/Graphics/SVG/1.1/DTD/svg11.dtd">
<svg xmlns:xlink="http://www.w3.org/1999/xlink" width="720pt" height="576pt" viewBox="0 0 720 576" xmlns="http://www.w3.org/2000/svg" version="1.1">
 <metadata>
  <rdf:RDF xmlns:dc="http://purl.org/dc/elements/1.1/" xmlns:cc="http://creativecommons.org/ns#" xmlns:rdf="http://www.w3.org/1999/02/22-rdf-syntax-ns#">
   <cc:Work>
    <dc:type rdf:resource="http://purl.org/dc/dcmitype/StillImage"/>
    <dc:date>2025-04-08T20:21:28.570971</dc:date>
    <dc:format>image/svg+xml</dc:format>
    <dc:creator>
     <cc:Agent>
      <dc:title>Matplotlib v3.10.1, https://matplotlib.org/</dc:title>
     </cc:Agent>
    </dc:creator>
   </cc:Work>
  </rdf:RDF>
 </metadata>
 <defs>
  <style type="text/css">*{stroke-linejoin: round; stroke-linecap: butt}</style>
 </defs>
 <g id="figure_1">
  <g id="patch_1">
   <path d="M 0 576 
L 720 576 
L 720 0 
L 0 0 
z
" style="fill: #ffffff"/>
  </g>
  <g id="axes_1">
   <g id="patch_2">
    <path d="M 50.96 400.033171 
L 700.83 400.033171 
L 700.83 34.56 
L 50.96 34.56 
z
" style="fill: #ffffff"/>
   </g>
   <g id="patch_3">
    <path d="M 80.499545 400.033171 
L 99.557317 400.033171 
L 99.557317 400.033171 
L 80.499545 400.033171 
z
" clip-path="url(#pdc5a7bd860)" style="fill: #414f73"/>
   </g>
   <g id="patch_4">
    <path d="M 156.73063 400.033171 
L 175.788402 400.033171 
L 175.788402 394.681599 
L 156.73063 394.681599 
z
" clip-path="url(#pdc5a7bd860)" style="fill: #414f73"/>
   </g>
   <g id="patch_5">
    <path d="M 232.961716 400.033171 
L 252.019487 400.033171 
L 252.019487 389.59108 
L 232.961716 389.59108 
z
" clip-path="url(#pdc5a7bd860)" style="fill: #414f73"/>
   </g>
   <g id="patch_6">
    <path d="M 309.192801 400.033171 
L 328.250572 400.033171 
L 328.250572 379.018463 
L 309.192801 379.018463 
z
" clip-path="url(#pdc5a7bd860)" style="fill: #414f73"/>
   </g>
   <g id="patch_7">
    <path d="M 385.423886 400.033171 
L 404.481657 400.033171 
L 404.481657 358.264808 
L 385.423886 358.264808 
z
" clip-path="url(#pdc5a7bd860)" style="fill: #414f73"/>
   </g>
   <g id="patch_8">
    <path d="M 461.654971 400.033171 
L 480.712742 400.033171 
L 480.712742 317.018551 
L 461.654971 317.018551 
z
" clip-path="url(#pdc5a7bd860)" style="fill: #414f73"/>
   </g>
   <g id="patch_9">
    <path d="M 537.886056 400.033171 
L 556.943827 400.033171 
L 556.943827 234.917613 
L 537.886056 234.917613 
z
" clip-path="url(#pdc5a7bd860)" style="fill: #414f73"/>
   </g>
   <g id="patch_10">
    <path d="M 614.117141 400.033171 
L 633.174912 400.033171 
L 633.174912 67.844164 
L 614.117141 67.844164 
z
" clip-path="url(#pdc5a7bd860)" style="fill: #414f73"/>
   </g>
   <g id="patch_11">
    <path d="M 99.557317 400.033171 
L 118.615088 400.033171 
L 118.615088 400.033171 
L 99.557317 400.033171 
z
" clip-path="url(#pdc5a7bd860)" style="fill: #ff7f0e"/>
   </g>
   <g id="patch_12">
    <path d="M 175.788402 400.033171 
L 194.846173 400.033171 
L 194.846173 394.681599 
L 175.788402 394.681599 
z
" clip-path="url(#pdc5a7bd860)" style="fill: #ff7f0e"/>
   </g>
   <g id="patch_13">
    <path d="M 252.019487 400.033171 
L 271.077258 400.033171 
L 271.077258 389.460554 
L 252.019487 389.460554 
z
" clip-path="url(#pdc5a7bd860)" style="fill: #ff7f0e"/>
   </g>
   <g id="patch_14">
    <path d="M 328.250572 400.033171 
L 347.308343 400.033171 
L 347.308343 378.757411 
L 328.250572 378.757411 
z
" clip-path="url(#pdc5a7bd860)" style="fill: #ff7f0e"/>
   </g>
   <g id="patch_15">
    <path d="M 404.481657 400.033171 
L 423.539428 400.033171 
L 423.539428 357.742704 
L 404.481657 357.742704 
z
" clip-path="url(#pdc5a7bd860)" style="fill: #ff7f0e"/>
   </g>
   <g id="patch_16">
    <path d="M 480.712742 400.033171 
L 499.770513 400.033171 
L 499.770513 315.582763 
L 480.712742 315.582763 
z
" clip-path="url(#pdc5a7bd860)" style="fill: #ff7f0e"/>
   </g>
   <g id="patch_17">
    <path d="M 556.943827 400.033171 
L 576.001598 400.033171 
L 576.001598 231.915512 
L 556.943827 231.915512 
z
" clip-path="url(#pdc5a7bd860)" style="fill: #ff7f0e"/>
   </g>
   <g id="patch_18">
    <path d="M 633.174912 400.033171 
L 652.232683 400.033171 
L 652.232683 65.103115 
L 633.174912 65.103115 
z
" clip-path="url(#pdc5a7bd860)" style="fill: #ff7f0e"/>
   </g>
   <g id="patch_19">
    <path d="M 118.615088 400.033171 
L 137.672859 400.033171 
L 137.672859 399.772118 
L 118.615088 399.772118 
z
" clip-path="url(#pdc5a7bd860)" style="fill: #2ca02c"/>
   </g>
   <g id="patch_20">
    <path d="M 194.846173 400.033171 
L 213.903944 400.033171 
L 213.903944 394.420547 
L 194.846173 394.420547 
z
" clip-path="url(#pdc5a7bd860)" style="fill: #2ca02c"/>
   </g>
   <g id="patch_21">
    <path d="M 271.077258 400.033171 
L 290.135029 400.033171 
L 290.135029 389.199502 
L 271.077258 389.199502 
z
" clip-path="url(#pdc5a7bd860)" style="fill: #2ca02c"/>
   </g>
   <g id="patch_22">
    <path d="M 347.308343 400.033171 
L 366.366114 400.033171 
L 366.366114 381.106882 
L 347.308343 381.106882 
z
" clip-path="url(#pdc5a7bd860)" style="fill: #2ca02c"/>
   </g>
   <g id="patch_23">
    <path d="M 423.539428 400.033171 
L 442.597199 400.033171 
L 442.597199 359.961648 
L 423.539428 359.961648 
z
" clip-path="url(#pdc5a7bd860)" style="fill: #2ca02c"/>
   </g>
   <g id="patch_24">
    <path d="M 499.770513 400.033171 
L 518.828284 400.033171 
L 518.828284 326.285906 
L 499.770513 326.285906 
z
" clip-path="url(#pdc5a7bd860)" style="fill: #2ca02c"/>
   </g>
   <g id="patch_25">
    <path d="M 576.001598 400.033171 
L 595.05937 400.033171 
L 595.05937 274.075453 
L 576.001598 274.075453 
z
" clip-path="url(#pdc5a7bd860)" style="fill: #2ca02c"/>
   </g>
   <g id="patch_26">
    <path d="M 652.232683 400.033171 
L 671.290455 400.033171 
L 671.290455 182.70716 
L 652.232683 182.70716 
z
" clip-path="url(#pdc5a7bd860)" style="fill: #2ca02c"/>
   </g>
   <g id="matplotlib.axis_1">
    <g id="xtick_1">
     <g id="line2d_1">
      <defs>
       <path id="m48a31d09ac" d="M 0 0 
L 0 3.5 
" style="stroke: #000000; stroke-width: 0.8"/>
      </defs>
      <g>
       <use xlink:href="#m48a31d09ac" x="109.086202" y="400.033171" style="stroke: #000000; stroke-width: 0.8"/>
      </g>
     </g>
    </g>
    <g id="xtick_2">
     <g id="line2d_2">
      <g>
       <use xlink:href="#m48a31d09ac" x="185.317287" y="400.033171" style="stroke: #000000; stroke-width: 0.8"/>
      </g>
     </g>
    </g>
    <g id="xtick_3">
     <g id="line2d_3">
      <g>
       <use xlink:href="#m48a31d09ac" x="261.548372" y="400.033171" style="stroke: #000000; stroke-width: 0.8"/>
      </g>
     </g>
    </g>
    <g id="xtick_4">
     <g id="line2d_4">
      <g>
       <use xlink:href="#m48a31d09ac" x="337.779457" y="400.033171" style="stroke: #000000; stroke-width: 0.8"/>
      </g>
     </g>
    </g>
    <g id="xtick_5">
     <g id="line2d_5">
      <g>
       <use xlink:href="#m48a31d09ac" x="414.010543" y="400.033171" style="stroke: #000000; stroke-width: 0.8"/>
      </g>
     </g>
    </g>
    <g id="xtick_6">
     <g id="line2d_6">
      <g>
       <use xlink:href="#m48a31d09ac" x="490.241628" y="400.033171" style="stroke: #000000; stroke-width: 0.8"/>
      </g>
     </g>
    </g>
    <g id="xtick_7">
     <g id="line2d_7">
      <g>
       <use xlink:href="#m48a31d09ac" x="566.472713" y="400.033171" style="stroke: #000000; stroke-width: 0.8"/>
      </g>
     </g>
    </g>
    <g id="xtick_8">
     <g id="line2d_8">
      <g>
       <use xlink:href="#m48a31d09ac" x="642.703798" y="400.033171" style="stroke: #000000; stroke-width: 0.8"/>
      </g>
     </g>
    </g>
   </g>
   <g id="matplotlib.axis_2">
    <g id="ytick_1">
     <g id="line2d_9">
      <defs>
       <path id="m6f5d617708" d="M 0 0 
L -3.5 0 
" style="stroke: #000000; stroke-width: 0.8"/>
      </defs>
      <g>
       <use xlink:href="#m6f5d617708" x="50.96" y="400.033171" style="stroke: #000000; stroke-width: 0.8"/>
      </g>
     </g>
     <g id="text_1">
      <!-- 0 -->
      <g transform="translate(37.5975 403.832389) scale(0.1 -0.1)">
       <defs>
        <path id="DejaVuSans-30" d="M 2034 4250 
Q 1547 4250 1301 3770 
Q 1056 3291 1056 2328 
Q 1056 1369 1301 889 
Q 1547 409 2034 409 
Q 2525 409 2770 889 
Q 3016 1369 3016 2328 
Q 3016 3291 2770 3770 
Q 2525 4250 2034 4250 
z
M 2034 4750 
Q 2819 4750 3233 4129 
Q 3647 3509 3647 2328 
Q 3647 1150 3233 529 
Q 2819 -91 2034 -91 
Q 1250 -91 836 529 
Q 422 1150 422 2328 
Q 422 3509 836 4129 
Q 1250 4750 2034 4750 
z
" transform="scale(0.015625)"/>
       </defs>
       <use xlink:href="#DejaVuSans-30"/>
      </g>
     </g>
    </g>
    <g id="ytick_2">
     <g id="line2d_10">
      <g>
       <use xlink:href="#m6f5d617708" x="50.96" y="394.812125" style="stroke: #000000; stroke-width: 0.8"/>
      </g>
     </g>
     <g id="text_2">
      <!-- 10 -->
      <g transform="translate(31.235 398.611344) scale(0.1 -0.1)">
       <defs>
        <path id="DejaVuSans-31" d="M 794 531 
L 1825 531 
L 1825 4091 
L 703 3866 
L 703 4441 
L 1819 4666 
L 2450 4666 
L 2450 531 
L 3481 531 
L 3481 0 
L 794 0 
L 794 531 
z
" transform="scale(0.015625)"/>
       </defs>
       <use xlink:href="#DejaVuSans-31"/>
       <use xlink:href="#DejaVuSans-30" transform="translate(63.623047 0)"/>
      </g>
     </g>
    </g>
    <g id="ytick_3">
     <g id="line2d_11">
      <g>
       <use xlink:href="#m6f5d617708" x="50.96" y="389.59108" style="stroke: #000000; stroke-width: 0.8"/>
      </g>
     </g>
     <g id="text_3">
      <!-- 20 -->
      <g transform="translate(31.235 393.390299) scale(0.1 -0.1)">
       <defs>
        <path id="DejaVuSans-32" d="M 1228 531 
L 3431 531 
L 3431 0 
L 469 0 
L 469 531 
Q 828 903 1448 1529 
Q 2069 2156 2228 2338 
Q 2531 2678 2651 2914 
Q 2772 3150 2772 3378 
Q 2772 3750 2511 3984 
Q 2250 4219 1831 4219 
Q 1534 4219 1204 4116 
Q 875 4013 500 3803 
L 500 4441 
Q 881 4594 1212 4672 
Q 1544 4750 1819 4750 
Q 2544 4750 2975 4387 
Q 3406 4025 3406 3419 
Q 3406 3131 3298 2873 
Q 3191 2616 2906 2266 
Q 2828 2175 2409 1742 
Q 1991 1309 1228 531 
z
" transform="scale(0.015625)"/>
       </defs>
       <use xlink:href="#DejaVuSans-32"/>
       <use xlink:href="#DejaVuSans-30" transform="translate(63.623047 0)"/>
      </g>
     </g>
    </g>
    <g id="ytick_4">
     <g id="line2d_12">
      <g>
       <use xlink:href="#m6f5d617708" x="50.96" y="379.14899" style="stroke: #000000; stroke-width: 0.8"/>
      </g>
     </g>
     <g id="text_4">
      <!-- 40 -->
      <g transform="translate(31.235 382.948208) scale(0.1 -0.1)">
       <defs>
        <path id="DejaVuSans-34" d="M 2419 4116 
L 825 1625 
L 2419 1625 
L 2419 4116 
z
M 2253 4666 
L 3047 4666 
L 3047 1625 
L 3713 1625 
L 3713 1100 
L 3047 1100 
L 3047 0 
L 2419 0 
L 2419 1100 
L 313 1100 
L 313 1709 
L 2253 4666 
z
" transform="scale(0.015625)"/>
       </defs>
       <use xlink:href="#DejaVuSans-34"/>
       <use xlink:href="#DejaVuSans-30" transform="translate(63.623047 0)"/>
      </g>
     </g>
    </g>
    <g id="ytick_5">
     <g id="line2d_13">
      <g>
       <use xlink:href="#m6f5d617708" x="50.96" y="358.264808" style="stroke: #000000; stroke-width: 0.8"/>
      </g>
     </g>
     <g id="text_5">
      <!-- 80 -->
      <g transform="translate(31.235 362.064027) scale(0.1 -0.1)">
       <defs>
        <path id="DejaVuSans-38" d="M 2034 2216 
Q 1584 2216 1326 1975 
Q 1069 1734 1069 1313 
Q 1069 891 1326 650 
Q 1584 409 2034 409 
Q 2484 409 2743 651 
Q 3003 894 3003 1313 
Q 3003 1734 2745 1975 
Q 2488 2216 2034 2216 
z
M 1403 2484 
Q 997 2584 770 2862 
Q 544 3141 544 3541 
Q 544 4100 942 4425 
Q 1341 4750 2034 4750 
Q 2731 4750 3128 4425 
Q 3525 4100 3525 3541 
Q 3525 3141 3298 2862 
Q 3072 2584 2669 2484 
Q 3125 2378 3379 2068 
Q 3634 1759 3634 1313 
Q 3634 634 3220 271 
Q 2806 -91 2034 -91 
Q 1263 -91 848 271 
Q 434 634 434 1313 
Q 434 1759 690 2068 
Q 947 2378 1403 2484 
z
M 1172 3481 
Q 1172 3119 1398 2916 
Q 1625 2713 2034 2713 
Q 2441 2713 2670 2916 
Q 2900 3119 2900 3481 
Q 2900 3844 2670 4047 
Q 2441 4250 2034 4250 
Q 1625 4250 1398 4047 
Q 1172 3844 1172 3481 
z
" transform="scale(0.015625)"/>
       </defs>
       <use xlink:href="#DejaVuSans-38"/>
       <use xlink:href="#DejaVuSans-30" transform="translate(63.623047 0)"/>
      </g>
     </g>
    </g>
    <g id="ytick_6">
     <g id="line2d_14">
      <g>
       <use xlink:href="#m6f5d617708" x="50.96" y="316.496446" style="stroke: #000000; stroke-width: 0.8"/>
      </g>
     </g>
     <g id="text_6">
      <!-- 160 -->
      <g transform="translate(24.8725 320.295665) scale(0.1 -0.1)">
       <defs>
        <path id="DejaVuSans-36" d="M 2113 2584 
Q 1688 2584 1439 2293 
Q 1191 2003 1191 1497 
Q 1191 994 1439 701 
Q 1688 409 2113 409 
Q 2538 409 2786 701 
Q 3034 994 3034 1497 
Q 3034 2003 2786 2293 
Q 2538 2584 2113 2584 
z
M 3366 4563 
L 3366 3988 
Q 3128 4100 2886 4159 
Q 2644 4219 2406 4219 
Q 1781 4219 1451 3797 
Q 1122 3375 1075 2522 
Q 1259 2794 1537 2939 
Q 1816 3084 2150 3084 
Q 2853 3084 3261 2657 
Q 3669 2231 3669 1497 
Q 3669 778 3244 343 
Q 2819 -91 2113 -91 
Q 1303 -91 875 529 
Q 447 1150 447 2328 
Q 447 3434 972 4092 
Q 1497 4750 2381 4750 
Q 2619 4750 2861 4703 
Q 3103 4656 3366 4563 
z
" transform="scale(0.015625)"/>
       </defs>
       <use xlink:href="#DejaVuSans-31"/>
       <use xlink:href="#DejaVuSans-36" transform="translate(63.623047 0)"/>
       <use xlink:href="#DejaVuSans-30" transform="translate(127.246094 0)"/>
      </g>
     </g>
    </g>
    <g id="ytick_7">
     <g id="line2d_15">
      <g>
       <use xlink:href="#m6f5d617708" x="50.96" y="232.959721" style="stroke: #000000; stroke-width: 0.8"/>
      </g>
     </g>
     <g id="text_7">
      <!-- 320 -->
      <g transform="translate(24.8725 236.75894) scale(0.1 -0.1)">
       <defs>
        <path id="DejaVuSans-33" d="M 2597 2516 
Q 3050 2419 3304 2112 
Q 3559 1806 3559 1356 
Q 3559 666 3084 287 
Q 2609 -91 1734 -91 
Q 1441 -91 1130 -33 
Q 819 25 488 141 
L 488 750 
Q 750 597 1062 519 
Q 1375 441 1716 441 
Q 2309 441 2620 675 
Q 2931 909 2931 1356 
Q 2931 1769 2642 2001 
Q 2353 2234 1838 2234 
L 1294 2234 
L 1294 2753 
L 1863 2753 
Q 2328 2753 2575 2939 
Q 2822 3125 2822 3475 
Q 2822 3834 2567 4026 
Q 2313 4219 1838 4219 
Q 1578 4219 1281 4162 
Q 984 4106 628 3988 
L 628 4550 
Q 988 4650 1302 4700 
Q 1616 4750 1894 4750 
Q 2613 4750 3031 4423 
Q 3450 4097 3450 3541 
Q 3450 3153 3228 2886 
Q 3006 2619 2597 2516 
z
" transform="scale(0.015625)"/>
       </defs>
       <use xlink:href="#DejaVuSans-33"/>
       <use xlink:href="#DejaVuSans-32" transform="translate(63.623047 0)"/>
       <use xlink:href="#DejaVuSans-30" transform="translate(127.246094 0)"/>
      </g>
     </g>
    </g>
    <g id="ytick_8">
     <g id="line2d_16">
      <g>
       <use xlink:href="#m6f5d617708" x="50.96" y="65.886272" style="stroke: #000000; stroke-width: 0.8"/>
      </g>
     </g>
     <g id="text_8">
      <!-- 640 -->
      <g transform="translate(24.8725 69.685491) scale(0.1 -0.1)">
       <use xlink:href="#DejaVuSans-36"/>
       <use xlink:href="#DejaVuSans-34" transform="translate(63.623047 0)"/>
       <use xlink:href="#DejaVuSans-30" transform="translate(127.246094 0)"/>
      </g>
     </g>
    </g>
    <g id="text_9">
     <!-- Averaged Detected Error -->
     <g transform="translate(18.792813 279.290335) rotate(-90) scale(0.1 -0.1)">
      <defs>
       <path id="DejaVuSans-41" d="M 2188 4044 
L 1331 1722 
L 3047 1722 
L 2188 4044 
z
M 1831 4666 
L 2547 4666 
L 4325 0 
L 3669 0 
L 3244 1197 
L 1141 1197 
L 716 0 
L 50 0 
L 1831 4666 
z
" transform="scale(0.015625)"/>
       <path id="DejaVuSans-76" d="M 191 3500 
L 800 3500 
L 1894 563 
L 2988 3500 
L 3597 3500 
L 2284 0 
L 1503 0 
L 191 3500 
z
" transform="scale(0.015625)"/>
       <path id="DejaVuSans-65" d="M 3597 1894 
L 3597 1613 
L 953 1613 
Q 991 1019 1311 708 
Q 1631 397 2203 397 
Q 2534 397 2845 478 
Q 3156 559 3463 722 
L 3463 178 
Q 3153 47 2828 -22 
Q 2503 -91 2169 -91 
Q 1331 -91 842 396 
Q 353 884 353 1716 
Q 353 2575 817 3079 
Q 1281 3584 2069 3584 
Q 2775 3584 3186 3129 
Q 3597 2675 3597 1894 
z
M 3022 2063 
Q 3016 2534 2758 2815 
Q 2500 3097 2075 3097 
Q 1594 3097 1305 2825 
Q 1016 2553 972 2059 
L 3022 2063 
z
" transform="scale(0.015625)"/>
       <path id="DejaVuSans-72" d="M 2631 2963 
Q 2534 3019 2420 3045 
Q 2306 3072 2169 3072 
Q 1681 3072 1420 2755 
Q 1159 2438 1159 1844 
L 1159 0 
L 581 0 
L 581 3500 
L 1159 3500 
L 1159 2956 
Q 1341 3275 1631 3429 
Q 1922 3584 2338 3584 
Q 2397 3584 2469 3576 
Q 2541 3569 2628 3553 
L 2631 2963 
z
" transform="scale(0.015625)"/>
       <path id="DejaVuSans-61" d="M 2194 1759 
Q 1497 1759 1228 1600 
Q 959 1441 959 1056 
Q 959 750 1161 570 
Q 1363 391 1709 391 
Q 2188 391 2477 730 
Q 2766 1069 2766 1631 
L 2766 1759 
L 2194 1759 
z
M 3341 1997 
L 3341 0 
L 2766 0 
L 2766 531 
Q 2569 213 2275 61 
Q 1981 -91 1556 -91 
Q 1019 -91 701 211 
Q 384 513 384 1019 
Q 384 1609 779 1909 
Q 1175 2209 1959 2209 
L 2766 2209 
L 2766 2266 
Q 2766 2663 2505 2880 
Q 2244 3097 1772 3097 
Q 1472 3097 1187 3025 
Q 903 2953 641 2809 
L 641 3341 
Q 956 3463 1253 3523 
Q 1550 3584 1831 3584 
Q 2591 3584 2966 3190 
Q 3341 2797 3341 1997 
z
" transform="scale(0.015625)"/>
       <path id="DejaVuSans-67" d="M 2906 1791 
Q 2906 2416 2648 2759 
Q 2391 3103 1925 3103 
Q 1463 3103 1205 2759 
Q 947 2416 947 1791 
Q 947 1169 1205 825 
Q 1463 481 1925 481 
Q 2391 481 2648 825 
Q 2906 1169 2906 1791 
z
M 3481 434 
Q 3481 -459 3084 -895 
Q 2688 -1331 1869 -1331 
Q 1566 -1331 1297 -1286 
Q 1028 -1241 775 -1147 
L 775 -588 
Q 1028 -725 1275 -790 
Q 1522 -856 1778 -856 
Q 2344 -856 2625 -561 
Q 2906 -266 2906 331 
L 2906 616 
Q 2728 306 2450 153 
Q 2172 0 1784 0 
Q 1141 0 747 490 
Q 353 981 353 1791 
Q 353 2603 747 3093 
Q 1141 3584 1784 3584 
Q 2172 3584 2450 3431 
Q 2728 3278 2906 2969 
L 2906 3500 
L 3481 3500 
L 3481 434 
z
" transform="scale(0.015625)"/>
       <path id="DejaVuSans-64" d="M 2906 2969 
L 2906 4863 
L 3481 4863 
L 3481 0 
L 2906 0 
L 2906 525 
Q 2725 213 2448 61 
Q 2172 -91 1784 -91 
Q 1150 -91 751 415 
Q 353 922 353 1747 
Q 353 2572 751 3078 
Q 1150 3584 1784 3584 
Q 2172 3584 2448 3432 
Q 2725 3281 2906 2969 
z
M 947 1747 
Q 947 1113 1208 752 
Q 1469 391 1925 391 
Q 2381 391 2643 752 
Q 2906 1113 2906 1747 
Q 2906 2381 2643 2742 
Q 2381 3103 1925 3103 
Q 1469 3103 1208 2742 
Q 947 2381 947 1747 
z
" transform="scale(0.015625)"/>
       <path id="DejaVuSans-20" transform="scale(0.015625)"/>
       <path id="DejaVuSans-44" d="M 1259 4147 
L 1259 519 
L 2022 519 
Q 2988 519 3436 956 
Q 3884 1394 3884 2338 
Q 3884 3275 3436 3711 
Q 2988 4147 2022 4147 
L 1259 4147 
z
M 628 4666 
L 1925 4666 
Q 3281 4666 3915 4102 
Q 4550 3538 4550 2338 
Q 4550 1131 3912 565 
Q 3275 0 1925 0 
L 628 0 
L 628 4666 
z
" transform="scale(0.015625)"/>
       <path id="DejaVuSans-74" d="M 1172 4494 
L 1172 3500 
L 2356 3500 
L 2356 3053 
L 1172 3053 
L 1172 1153 
Q 1172 725 1289 603 
Q 1406 481 1766 481 
L 2356 481 
L 2356 0 
L 1766 0 
Q 1100 0 847 248 
Q 594 497 594 1153 
L 594 3053 
L 172 3053 
L 172 3500 
L 594 3500 
L 594 4494 
L 1172 4494 
z
" transform="scale(0.015625)"/>
       <path id="DejaVuSans-63" d="M 3122 3366 
L 3122 2828 
Q 2878 2963 2633 3030 
Q 2388 3097 2138 3097 
Q 1578 3097 1268 2742 
Q 959 2388 959 1747 
Q 959 1106 1268 751 
Q 1578 397 2138 397 
Q 2388 397 2633 464 
Q 2878 531 3122 666 
L 3122 134 
Q 2881 22 2623 -34 
Q 2366 -91 2075 -91 
Q 1284 -91 818 406 
Q 353 903 353 1747 
Q 353 2603 823 3093 
Q 1294 3584 2113 3584 
Q 2378 3584 2631 3529 
Q 2884 3475 3122 3366 
z
" transform="scale(0.015625)"/>
       <path id="DejaVuSans-45" d="M 628 4666 
L 3578 4666 
L 3578 4134 
L 1259 4134 
L 1259 2753 
L 3481 2753 
L 3481 2222 
L 1259 2222 
L 1259 531 
L 3634 531 
L 3634 0 
L 628 0 
L 628 4666 
z
" transform="scale(0.015625)"/>
       <path id="DejaVuSans-6f" d="M 1959 3097 
Q 1497 3097 1228 2736 
Q 959 2375 959 1747 
Q 959 1119 1226 758 
Q 1494 397 1959 397 
Q 2419 397 2687 759 
Q 2956 1122 2956 1747 
Q 2956 2369 2687 2733 
Q 2419 3097 1959 3097 
z
M 1959 3584 
Q 2709 3584 3137 3096 
Q 3566 2609 3566 1747 
Q 3566 888 3137 398 
Q 2709 -91 1959 -91 
Q 1206 -91 779 398 
Q 353 888 353 1747 
Q 353 2609 779 3096 
Q 1206 3584 1959 3584 
z
" transform="scale(0.015625)"/>
      </defs>
      <use xlink:href="#DejaVuSans-41"/>
      <use xlink:href="#DejaVuSans-76" transform="translate(62.533203 0)"/>
      <use xlink:href="#DejaVuSans-65" transform="translate(121.712891 0)"/>
      <use xlink:href="#DejaVuSans-72" transform="translate(183.236328 0)"/>
      <use xlink:href="#DejaVuSans-61" transform="translate(224.349609 0)"/>
      <use xlink:href="#DejaVuSans-67" transform="translate(285.628906 0)"/>
      <use xlink:href="#DejaVuSans-65" transform="translate(349.105469 0)"/>
      <use xlink:href="#DejaVuSans-64" transform="translate(410.628906 0)"/>
      <use xlink:href="#DejaVuSans-20" transform="translate(474.105469 0)"/>
      <use xlink:href="#DejaVuSans-44" transform="translate(505.892578 0)"/>
      <use xlink:href="#DejaVuSans-65" transform="translate(582.894531 0)"/>
      <use xlink:href="#DejaVuSans-74" transform="translate(644.417969 0)"/>
      <use xlink:href="#DejaVuSans-65" transform="translate(683.626953 0)"/>
      <use xlink:href="#DejaVuSans-63" transform="translate(745.150391 0)"/>
      <use xlink:href="#DejaVuSans-74" transform="translate(800.130859 0)"/>
      <use xlink:href="#DejaVuSans-65" transform="translate(839.339844 0)"/>
      <use xlink:href="#DejaVuSans-64" transform="translate(900.863281 0)"/>
      <use xlink:href="#DejaVuSans-20" transform="translate(964.339844 0)"/>
      <use xlink:href="#DejaVuSans-45" transform="translate(996.126953 0)"/>
      <use xlink:href="#DejaVuSans-72" transform="translate(1059.310547 0)"/>
      <use xlink:href="#DejaVuSans-72" transform="translate(1098.673828 0)"/>
      <use xlink:href="#DejaVuSans-6f" transform="translate(1137.537109 0)"/>
      <use xlink:href="#DejaVuSans-72" transform="translate(1198.71875 0)"/>
     </g>
    </g>
   </g>
   <g id="LineCollection_1">
    <path d="M 90.028431 400.033171 
L 90.028431 400.033171 
" clip-path="url(#pdc5a7bd860)" style="fill: none; stroke: #000000; stroke-width: 1.5"/>
    <path d="M 166.259516 394.907677 
L 166.259516 394.455521 
" clip-path="url(#pdc5a7bd860)" style="fill: none; stroke: #000000; stroke-width: 1.5"/>
    <path d="M 242.490601 389.960264 
L 242.490601 389.221896 
" clip-path="url(#pdc5a7bd860)" style="fill: none; stroke: #000000; stroke-width: 1.5"/>
    <path d="M 318.721686 379.244541 
L 318.721686 378.792386 
" clip-path="url(#pdc5a7bd860)" style="fill: none; stroke: #000000; stroke-width: 1.5"/>
    <path d="M 394.952771 358.633992 
L 394.952771 357.895625 
" clip-path="url(#pdc5a7bd860)" style="fill: none; stroke: #000000; stroke-width: 1.5"/>
    <path d="M 471.183856 318.242994 
L 471.183856 315.794107 
" clip-path="url(#pdc5a7bd860)" style="fill: none; stroke: #000000; stroke-width: 1.5"/>
    <path d="M 547.414941 237.082144 
L 547.414941 232.753082 
" clip-path="url(#pdc5a7bd860)" style="fill: none; stroke: #000000; stroke-width: 1.5"/>
    <path d="M 623.646026 70.008695 
L 623.646026 65.679633 
" clip-path="url(#pdc5a7bd860)" style="fill: none; stroke: #000000; stroke-width: 1.5"/>
   </g>
   <g id="line2d_17">
    <defs>
     <path id="m0518688fd8" d="M 5 0 
L -5 -0 
" style="stroke: #000000"/>
    </defs>
    <g clip-path="url(#pdc5a7bd860)">
     <use xlink:href="#m0518688fd8" x="90.028431" y="400.033171" style="stroke: #000000"/>
     <use xlink:href="#m0518688fd8" x="166.259516" y="394.907677" style="stroke: #000000"/>
     <use xlink:href="#m0518688fd8" x="242.490601" y="389.960264" style="stroke: #000000"/>
     <use xlink:href="#m0518688fd8" x="318.721686" y="379.244541" style="stroke: #000000"/>
     <use xlink:href="#m0518688fd8" x="394.952771" y="358.633992" style="stroke: #000000"/>
     <use xlink:href="#m0518688fd8" x="471.183856" y="318.242994" style="stroke: #000000"/>
     <use xlink:href="#m0518688fd8" x="547.414941" y="237.082144" style="stroke: #000000"/>
     <use xlink:href="#m0518688fd8" x="623.646026" y="70.008695" style="stroke: #000000"/>
    </g>
   </g>
   <g id="line2d_18">
    <g clip-path="url(#pdc5a7bd860)">
     <use xlink:href="#m0518688fd8" x="90.028431" y="400.033171" style="stroke: #000000"/>
     <use xlink:href="#m0518688fd8" x="166.259516" y="394.455521" style="stroke: #000000"/>
     <use xlink:href="#m0518688fd8" x="242.490601" y="389.221896" style="stroke: #000000"/>
     <use xlink:href="#m0518688fd8" x="318.721686" y="378.792386" style="stroke: #000000"/>
     <use xlink:href="#m0518688fd8" x="394.952771" y="357.895625" style="stroke: #000000"/>
     <use xlink:href="#m0518688fd8" x="471.183856" y="315.794107" style="stroke: #000000"/>
     <use xlink:href="#m0518688fd8" x="547.414941" y="232.753082" style="stroke: #000000"/>
     <use xlink:href="#m0518688fd8" x="623.646026" y="65.679633" style="stroke: #000000"/>
    </g>
   </g>
   <g id="LineCollection_2">
    <path d="M 109.086202 400.033171 
L 109.086202 400.033171 
" clip-path="url(#pdc5a7bd860)" style="fill: none; stroke: #000000; stroke-width: 1.5"/>
    <path d="M 185.317287 394.907677 
L 185.317287 394.455521 
" clip-path="url(#pdc5a7bd860)" style="fill: none; stroke: #000000; stroke-width: 1.5"/>
    <path d="M 261.548372 389.686632 
L 261.548372 389.234476 
" clip-path="url(#pdc5a7bd860)" style="fill: none; stroke: #000000; stroke-width: 1.5"/>
    <path d="M 337.779457 379.190317 
L 337.779457 378.324505 
" clip-path="url(#pdc5a7bd860)" style="fill: none; stroke: #000000; stroke-width: 1.5"/>
    <path d="M 414.010543 358.382149 
L 414.010543 357.103259 
" clip-path="url(#pdc5a7bd860)" style="fill: none; stroke: #000000; stroke-width: 1.5"/>
    <path d="M 490.241628 316.651166 
L 490.241628 314.514361 
" clip-path="url(#pdc5a7bd860)" style="fill: none; stroke: #000000; stroke-width: 1.5"/>
    <path d="M 566.472713 233.023063 
L 566.472713 230.807961 
" clip-path="url(#pdc5a7bd860)" style="fill: none; stroke: #000000; stroke-width: 1.5"/>
    <path d="M 642.703798 66.179461 
L 642.703798 64.026769 
" clip-path="url(#pdc5a7bd860)" style="fill: none; stroke: #000000; stroke-width: 1.5"/>
   </g>
   <g id="line2d_19">
    <g clip-path="url(#pdc5a7bd860)">
     <use xlink:href="#m0518688fd8" x="109.086202" y="400.033171" style="stroke: #000000"/>
     <use xlink:href="#m0518688fd8" x="185.317287" y="394.907677" style="stroke: #000000"/>
     <use xlink:href="#m0518688fd8" x="261.548372" y="389.686632" style="stroke: #000000"/>
     <use xlink:href="#m0518688fd8" x="337.779457" y="379.190317" style="stroke: #000000"/>
     <use xlink:href="#m0518688fd8" x="414.010543" y="358.382149" style="stroke: #000000"/>
     <use xlink:href="#m0518688fd8" x="490.241628" y="316.651166" style="stroke: #000000"/>
     <use xlink:href="#m0518688fd8" x="566.472713" y="233.023063" style="stroke: #000000"/>
     <use xlink:href="#m0518688fd8" x="642.703798" y="66.179461" style="stroke: #000000"/>
    </g>
   </g>
   <g id="line2d_20">
    <g clip-path="url(#pdc5a7bd860)">
     <use xlink:href="#m0518688fd8" x="109.086202" y="400.033171" style="stroke: #000000"/>
     <use xlink:href="#m0518688fd8" x="185.317287" y="394.455521" style="stroke: #000000"/>
     <use xlink:href="#m0518688fd8" x="261.548372" y="389.234476" style="stroke: #000000"/>
     <use xlink:href="#m0518688fd8" x="337.779457" y="378.324505" style="stroke: #000000"/>
     <use xlink:href="#m0518688fd8" x="414.010543" y="357.103259" style="stroke: #000000"/>
     <use xlink:href="#m0518688fd8" x="490.241628" y="314.514361" style="stroke: #000000"/>
     <use xlink:href="#m0518688fd8" x="566.472713" y="230.807961" style="stroke: #000000"/>
     <use xlink:href="#m0518688fd8" x="642.703798" y="64.026769" style="stroke: #000000"/>
    </g>
   </g>
   <g id="LineCollection_3">
    <path d="M 128.143974 400.224274 
L 128.143974 399.319963 
" clip-path="url(#pdc5a7bd860)" style="fill: none; stroke: #000000; stroke-width: 1.5"/>
    <path d="M 204.375059 394.853453 
L 204.375059 393.987641 
" clip-path="url(#pdc5a7bd860)" style="fill: none; stroke: #000000; stroke-width: 1.5"/>
    <path d="M 280.606144 389.632408 
L 280.606144 388.766596 
" clip-path="url(#pdc5a7bd860)" style="fill: none; stroke: #000000; stroke-width: 1.5"/>
    <path d="M 356.837229 382.689427 
L 356.837229 379.524336 
" clip-path="url(#pdc5a7bd860)" style="fill: none; stroke: #000000; stroke-width: 1.5"/>
    <path d="M 433.068314 361.746566 
L 433.068314 358.17673 
" clip-path="url(#pdc5a7bd860)" style="fill: none; stroke: #000000; stroke-width: 1.5"/>
    <path d="M 509.299399 333.03677 
L 509.299399 319.535042 
" clip-path="url(#pdc5a7bd860)" style="fill: none; stroke: #000000; stroke-width: 1.5"/>
    <path d="M 585.530484 298.098999 
L 585.530484 250.051906 
" clip-path="url(#pdc5a7bd860)" style="fill: none; stroke: #000000; stroke-width: 1.5"/>
    <path d="M 661.761569 251.310161 
L 661.761569 114.10416 
" clip-path="url(#pdc5a7bd860)" style="fill: none; stroke: #000000; stroke-width: 1.5"/>
   </g>
   <g id="line2d_21">
    <g clip-path="url(#pdc5a7bd860)">
     <use xlink:href="#m0518688fd8" x="128.143974" y="400.224274" style="stroke: #000000"/>
     <use xlink:href="#m0518688fd8" x="204.375059" y="394.853453" style="stroke: #000000"/>
     <use xlink:href="#m0518688fd8" x="280.606144" y="389.632408" style="stroke: #000000"/>
     <use xlink:href="#m0518688fd8" x="356.837229" y="382.689427" style="stroke: #000000"/>
     <use xlink:href="#m0518688fd8" x="433.068314" y="361.746566" style="stroke: #000000"/>
     <use xlink:href="#m0518688fd8" x="509.299399" y="333.03677" style="stroke: #000000"/>
     <use xlink:href="#m0518688fd8" x="585.530484" y="298.098999" style="stroke: #000000"/>
     <use xlink:href="#m0518688fd8" x="661.761569" y="251.310161" style="stroke: #000000"/>
    </g>
   </g>
   <g id="line2d_22">
    <g clip-path="url(#pdc5a7bd860)">
     <use xlink:href="#m0518688fd8" x="128.143974" y="399.319963" style="stroke: #000000"/>
     <use xlink:href="#m0518688fd8" x="204.375059" y="393.987641" style="stroke: #000000"/>
     <use xlink:href="#m0518688fd8" x="280.606144" y="388.766596" style="stroke: #000000"/>
     <use xlink:href="#m0518688fd8" x="356.837229" y="379.524336" style="stroke: #000000"/>
     <use xlink:href="#m0518688fd8" x="433.068314" y="358.17673" style="stroke: #000000"/>
     <use xlink:href="#m0518688fd8" x="509.299399" y="319.535042" style="stroke: #000000"/>
     <use xlink:href="#m0518688fd8" x="585.530484" y="250.051906" style="stroke: #000000"/>
     <use xlink:href="#m0518688fd8" x="661.761569" y="114.10416" style="stroke: #000000"/>
    </g>
   </g>
   <g id="line2d_23">
    <path d="M 41.21195 405.515268 
L 60.70805 394.551073 
" style="fill: none; stroke: #000000; stroke-width: 1.5; stroke-linecap: square"/>
   </g>
   <g id="line2d_24">
    <path d="M 691.08195 405.515268 
L 710.57805 394.551073 
" style="fill: none; stroke: #000000; stroke-width: 1.5; stroke-linecap: square"/>
   </g>
   <g id="patch_27">
    <path d="M 50.96 400.033171 
L 50.96 34.56 
" style="fill: none; stroke: #000000; stroke-width: 0.8; stroke-linejoin: miter; stroke-linecap: square"/>
   </g>
   <g id="patch_28">
    <path d="M 700.83 400.033171 
L 700.83 34.56 
" style="fill: none; stroke: #000000; stroke-width: 0.8; stroke-linejoin: miter; stroke-linecap: square"/>
   </g>
   <g id="patch_29">
    <path d="M 50.96 34.56 
L 700.83 34.56 
" style="fill: none; stroke: #000000; stroke-width: 0.8; stroke-linejoin: miter; stroke-linecap: square"/>
   </g>
   <g id="legend_1">
    <g id="patch_30">
     <path d="M 57.96 86.594375 
L 173.900625 86.594375 
Q 175.900625 86.594375 175.900625 84.594375 
L 175.900625 41.56 
Q 175.900625 39.56 173.900625 39.56 
L 57.96 39.56 
Q 55.96 39.56 55.96 41.56 
L 55.96 84.594375 
Q 55.96 86.594375 57.96 86.594375 
z
" style="fill: #ffffff; opacity: 0.8; stroke: #cccccc; stroke-linejoin: miter"/>
    </g>
    <g id="patch_31">
     <path d="M 59.96 51.158437 
L 79.96 51.158437 
L 79.96 44.158437 
L 59.96 44.158437 
z
" style="fill: #414f73"/>
    </g>
    <g id="text_10">
     <!-- Pyvista -->
     <g transform="translate(87.96 51.158437) scale(0.1 -0.1)">
      <defs>
       <path id="DejaVuSans-50" d="M 1259 4147 
L 1259 2394 
L 2053 2394 
Q 2494 2394 2734 2622 
Q 2975 2850 2975 3272 
Q 2975 3691 2734 3919 
Q 2494 4147 2053 4147 
L 1259 4147 
z
M 628 4666 
L 2053 4666 
Q 2838 4666 3239 4311 
Q 3641 3956 3641 3272 
Q 3641 2581 3239 2228 
Q 2838 1875 2053 1875 
L 1259 1875 
L 1259 0 
L 628 0 
L 628 4666 
z
" transform="scale(0.015625)"/>
       <path id="DejaVuSans-79" d="M 2059 -325 
Q 1816 -950 1584 -1140 
Q 1353 -1331 966 -1331 
L 506 -1331 
L 506 -850 
L 844 -850 
Q 1081 -850 1212 -737 
Q 1344 -625 1503 -206 
L 1606 56 
L 191 3500 
L 800 3500 
L 1894 763 
L 2988 3500 
L 3597 3500 
L 2059 -325 
z
" transform="scale(0.015625)"/>
       <path id="DejaVuSans-69" d="M 603 3500 
L 1178 3500 
L 1178 0 
L 603 0 
L 603 3500 
z
M 603 4863 
L 1178 4863 
L 1178 4134 
L 603 4134 
L 603 4863 
z
" transform="scale(0.015625)"/>
       <path id="DejaVuSans-73" d="M 2834 3397 
L 2834 2853 
Q 2591 2978 2328 3040 
Q 2066 3103 1784 3103 
Q 1356 3103 1142 2972 
Q 928 2841 928 2578 
Q 928 2378 1081 2264 
Q 1234 2150 1697 2047 
L 1894 2003 
Q 2506 1872 2764 1633 
Q 3022 1394 3022 966 
Q 3022 478 2636 193 
Q 2250 -91 1575 -91 
Q 1294 -91 989 -36 
Q 684 19 347 128 
L 347 722 
Q 666 556 975 473 
Q 1284 391 1588 391 
Q 1994 391 2212 530 
Q 2431 669 2431 922 
Q 2431 1156 2273 1281 
Q 2116 1406 1581 1522 
L 1381 1569 
Q 847 1681 609 1914 
Q 372 2147 372 2553 
Q 372 3047 722 3315 
Q 1072 3584 1716 3584 
Q 2034 3584 2315 3537 
Q 2597 3491 2834 3397 
z
" transform="scale(0.015625)"/>
      </defs>
      <use xlink:href="#DejaVuSans-50"/>
      <use xlink:href="#DejaVuSans-79" transform="translate(60.302734 0)"/>
      <use xlink:href="#DejaVuSans-76" transform="translate(119.482422 0)"/>
      <use xlink:href="#DejaVuSans-69" transform="translate(178.662109 0)"/>
      <use xlink:href="#DejaVuSans-73" transform="translate(206.445312 0)"/>
      <use xlink:href="#DejaVuSans-74" transform="translate(258.544922 0)"/>
      <use xlink:href="#DejaVuSans-61" transform="translate(297.753906 0)"/>
     </g>
    </g>
    <g id="patch_32">
     <path d="M 59.96 65.836563 
L 79.96 65.836563 
L 79.96 58.836563 
L 59.96 58.836563 
z
" style="fill: #ff7f0e"/>
    </g>
    <g id="text_11">
     <!-- Winding Number -->
     <g transform="translate(87.96 65.836563) scale(0.1 -0.1)">
      <defs>
       <path id="DejaVuSans-57" d="M 213 4666 
L 850 4666 
L 1831 722 
L 2809 4666 
L 3519 4666 
L 4500 722 
L 5478 4666 
L 6119 4666 
L 4947 0 
L 4153 0 
L 3169 4050 
L 2175 0 
L 1381 0 
L 213 4666 
z
" transform="scale(0.015625)"/>
       <path id="DejaVuSans-6e" d="M 3513 2113 
L 3513 0 
L 2938 0 
L 2938 2094 
Q 2938 2591 2744 2837 
Q 2550 3084 2163 3084 
Q 1697 3084 1428 2787 
Q 1159 2491 1159 1978 
L 1159 0 
L 581 0 
L 581 3500 
L 1159 3500 
L 1159 2956 
Q 1366 3272 1645 3428 
Q 1925 3584 2291 3584 
Q 2894 3584 3203 3211 
Q 3513 2838 3513 2113 
z
" transform="scale(0.015625)"/>
       <path id="DejaVuSans-4e" d="M 628 4666 
L 1478 4666 
L 3547 763 
L 3547 4666 
L 4159 4666 
L 4159 0 
L 3309 0 
L 1241 3903 
L 1241 0 
L 628 0 
L 628 4666 
z
" transform="scale(0.015625)"/>
       <path id="DejaVuSans-75" d="M 544 1381 
L 544 3500 
L 1119 3500 
L 1119 1403 
Q 1119 906 1312 657 
Q 1506 409 1894 409 
Q 2359 409 2629 706 
Q 2900 1003 2900 1516 
L 2900 3500 
L 3475 3500 
L 3475 0 
L 2900 0 
L 2900 538 
Q 2691 219 2414 64 
Q 2138 -91 1772 -91 
Q 1169 -91 856 284 
Q 544 659 544 1381 
z
M 1991 3584 
L 1991 3584 
z
" transform="scale(0.015625)"/>
       <path id="DejaVuSans-6d" d="M 3328 2828 
Q 3544 3216 3844 3400 
Q 4144 3584 4550 3584 
Q 5097 3584 5394 3201 
Q 5691 2819 5691 2113 
L 5691 0 
L 5113 0 
L 5113 2094 
Q 5113 2597 4934 2840 
Q 4756 3084 4391 3084 
Q 3944 3084 3684 2787 
Q 3425 2491 3425 1978 
L 3425 0 
L 2847 0 
L 2847 2094 
Q 2847 2600 2669 2842 
Q 2491 3084 2119 3084 
Q 1678 3084 1418 2786 
Q 1159 2488 1159 1978 
L 1159 0 
L 581 0 
L 581 3500 
L 1159 3500 
L 1159 2956 
Q 1356 3278 1631 3431 
Q 1906 3584 2284 3584 
Q 2666 3584 2933 3390 
Q 3200 3197 3328 2828 
z
" transform="scale(0.015625)"/>
       <path id="DejaVuSans-62" d="M 3116 1747 
Q 3116 2381 2855 2742 
Q 2594 3103 2138 3103 
Q 1681 3103 1420 2742 
Q 1159 2381 1159 1747 
Q 1159 1113 1420 752 
Q 1681 391 2138 391 
Q 2594 391 2855 752 
Q 3116 1113 3116 1747 
z
M 1159 2969 
Q 1341 3281 1617 3432 
Q 1894 3584 2278 3584 
Q 2916 3584 3314 3078 
Q 3713 2572 3713 1747 
Q 3713 922 3314 415 
Q 2916 -91 2278 -91 
Q 1894 -91 1617 61 
Q 1341 213 1159 525 
L 1159 0 
L 581 0 
L 581 4863 
L 1159 4863 
L 1159 2969 
z
" transform="scale(0.015625)"/>
      </defs>
      <use xlink:href="#DejaVuSans-57"/>
      <use xlink:href="#DejaVuSans-69" transform="translate(96.626953 0)"/>
      <use xlink:href="#DejaVuSans-6e" transform="translate(124.410156 0)"/>
      <use xlink:href="#DejaVuSans-64" transform="translate(187.789062 0)"/>
      <use xlink:href="#DejaVuSans-69" transform="translate(251.265625 0)"/>
      <use xlink:href="#DejaVuSans-6e" transform="translate(279.048828 0)"/>
      <use xlink:href="#DejaVuSans-67" transform="translate(342.427734 0)"/>
      <use xlink:href="#DejaVuSans-20" transform="translate(405.904297 0)"/>
      <use xlink:href="#DejaVuSans-4e" transform="translate(437.691406 0)"/>
      <use xlink:href="#DejaVuSans-75" transform="translate(512.496094 0)"/>
      <use xlink:href="#DejaVuSans-6d" transform="translate(575.875 0)"/>
      <use xlink:href="#DejaVuSans-62" transform="translate(673.287109 0)"/>
      <use xlink:href="#DejaVuSans-65" transform="translate(736.763672 0)"/>
      <use xlink:href="#DejaVuSans-72" transform="translate(798.287109 0)"/>
     </g>
    </g>
    <g id="patch_33">
     <path d="M 59.96 80.514687 
L 79.96 80.514687 
L 79.96 73.514687 
L 59.96 73.514687 
z
" style="fill: #2ca02c"/>
    </g>
    <g id="text_12">
     <!-- Comparison -->
     <g transform="translate(87.96 80.514687) scale(0.1 -0.1)">
      <defs>
       <path id="DejaVuSans-43" d="M 4122 4306 
L 4122 3641 
Q 3803 3938 3442 4084 
Q 3081 4231 2675 4231 
Q 1875 4231 1450 3742 
Q 1025 3253 1025 2328 
Q 1025 1406 1450 917 
Q 1875 428 2675 428 
Q 3081 428 3442 575 
Q 3803 722 4122 1019 
L 4122 359 
Q 3791 134 3420 21 
Q 3050 -91 2638 -91 
Q 1578 -91 968 557 
Q 359 1206 359 2328 
Q 359 3453 968 4101 
Q 1578 4750 2638 4750 
Q 3056 4750 3426 4639 
Q 3797 4528 4122 4306 
z
" transform="scale(0.015625)"/>
       <path id="DejaVuSans-70" d="M 1159 525 
L 1159 -1331 
L 581 -1331 
L 581 3500 
L 1159 3500 
L 1159 2969 
Q 1341 3281 1617 3432 
Q 1894 3584 2278 3584 
Q 2916 3584 3314 3078 
Q 3713 2572 3713 1747 
Q 3713 922 3314 415 
Q 2916 -91 2278 -91 
Q 1894 -91 1617 61 
Q 1341 213 1159 525 
z
M 3116 1747 
Q 3116 2381 2855 2742 
Q 2594 3103 2138 3103 
Q 1681 3103 1420 2742 
Q 1159 2381 1159 1747 
Q 1159 1113 1420 752 
Q 1681 391 2138 391 
Q 2594 391 2855 752 
Q 3116 1113 3116 1747 
z
" transform="scale(0.015625)"/>
      </defs>
      <use xlink:href="#DejaVuSans-43"/>
      <use xlink:href="#DejaVuSans-6f" transform="translate(69.824219 0)"/>
      <use xlink:href="#DejaVuSans-6d" transform="translate(131.005859 0)"/>
      <use xlink:href="#DejaVuSans-70" transform="translate(228.417969 0)"/>
      <use xlink:href="#DejaVuSans-61" transform="translate(291.894531 0)"/>
      <use xlink:href="#DejaVuSans-72" transform="translate(353.173828 0)"/>
      <use xlink:href="#DejaVuSans-69" transform="translate(394.287109 0)"/>
      <use xlink:href="#DejaVuSans-73" transform="translate(422.070312 0)"/>
      <use xlink:href="#DejaVuSans-6f" transform="translate(474.169922 0)"/>
      <use xlink:href="#DejaVuSans-6e" transform="translate(535.351562 0)"/>
     </g>
    </g>
   </g>
  </g>
  <g id="axes_2">
   <g id="patch_34">
    <path d="M 50.96 534.04 
L 700.83 534.04 
L 700.83 412.21561 
L 50.96 412.21561 
z
" style="fill: #ffffff"/>
   </g>
   <g id="patch_35">
    <path d="M 80.499545 158.340711 
L 99.557317 158.340711 
L 99.557317 158.340711 
L 80.499545 158.340711 
z
" clip-path="url(#pab350b6dc0)" style="fill: #414f73"/>
   </g>
   <g id="patch_36">
    <path d="M 156.73063 158.340711 
L 175.788402 158.340711 
L 175.788402 162.191629 
L 156.73063 162.191629 
z
" clip-path="url(#pab350b6dc0)" style="fill: #414f73"/>
   </g>
   <g id="patch_37">
    <path d="M 232.961716 158.340711 
L 252.019487 158.340711 
L 252.019487 165.854697 
L 232.961716 165.854697 
z
" clip-path="url(#pab350b6dc0)" style="fill: #414f73"/>
   </g>
   <g id="patch_38">
    <path d="M 309.192801 158.340711 
L 328.250572 158.340711 
L 328.250572 173.462608 
L 309.192801 173.462608 
z
" clip-path="url(#pab350b6dc0)" style="fill: #414f73"/>
   </g>
   <g id="patch_39">
    <path d="M 385.423886 158.340711 
L 404.481657 158.340711 
L 404.481657 188.396654 
L 385.423886 188.396654 
z
" clip-path="url(#pab350b6dc0)" style="fill: #414f73"/>
   </g>
   <g id="patch_40">
    <path d="M 461.654971 158.340711 
L 480.712742 158.340711 
L 480.712742 218.076898 
L 461.654971 218.076898 
z
" clip-path="url(#pab350b6dc0)" style="fill: #414f73"/>
   </g>
   <g id="patch_41">
    <path d="M 537.886056 158.340711 
L 556.943827 158.340711 
L 556.943827 277.155611 
L 537.886056 277.155611 
z
" clip-path="url(#pab350b6dc0)" style="fill: #414f73"/>
   </g>
   <g id="patch_42">
    <path d="M 614.117141 158.340711 
L 633.174912 158.340711 
L 633.174912 397.379384 
L 614.117141 397.379384 
z
" clip-path="url(#pab350b6dc0)" style="fill: #414f73"/>
   </g>
   <g id="patch_43">
    <path d="M 99.557317 158.340711 
L 118.615088 158.340711 
L 118.615088 158.340711 
L 99.557317 158.340711 
z
" clip-path="url(#pab350b6dc0)" style="fill: #ff7f0e"/>
   </g>
   <g id="patch_44">
    <path d="M 175.788402 158.340711 
L 194.846173 158.340711 
L 194.846173 162.191629 
L 175.788402 162.191629 
z
" clip-path="url(#pab350b6dc0)" style="fill: #ff7f0e"/>
   </g>
   <g id="patch_45">
    <path d="M 252.019487 158.340711 
L 271.077258 158.340711 
L 271.077258 165.948622 
L 252.019487 165.948622 
z
" clip-path="url(#pab350b6dc0)" style="fill: #ff7f0e"/>
   </g>
   <g id="patch_46">
    <path d="M 328.250572 158.340711 
L 347.308343 158.340711 
L 347.308343 173.650457 
L 328.250572 173.650457 
z
" clip-path="url(#pab350b6dc0)" style="fill: #ff7f0e"/>
   </g>
   <g id="patch_47">
    <path d="M 404.481657 158.340711 
L 423.539428 158.340711 
L 423.539428 188.772354 
L 404.481657 188.772354 
z
" clip-path="url(#pab350b6dc0)" style="fill: #ff7f0e"/>
   </g>
   <g id="patch_48">
    <path d="M 480.712742 158.340711 
L 499.770513 158.340711 
L 499.770513 219.110071 
L 480.712742 219.110071 
z
" clip-path="url(#pab350b6dc0)" style="fill: #ff7f0e"/>
   </g>
   <g id="patch_49">
    <path d="M 556.943827 158.340711 
L 576.001598 158.340711 
L 576.001598 279.315882 
L 556.943827 279.315882 
z
" clip-path="url(#pab350b6dc0)" style="fill: #ff7f0e"/>
   </g>
   <g id="patch_50">
    <path d="M 633.174912 158.340711 
L 652.232683 158.340711 
L 652.232683 399.351805 
L 633.174912 399.351805 
z
" clip-path="url(#pab350b6dc0)" style="fill: #ff7f0e"/>
   </g>
   <g id="patch_51">
    <path d="M 118.615088 158.340711 
L 137.672859 158.340711 
L 137.672859 158.528561 
L 118.615088 158.528561 
z
" clip-path="url(#pab350b6dc0)" style="fill: #2ca02c"/>
   </g>
   <g id="patch_52">
    <path d="M 194.846173 158.340711 
L 213.903944 158.340711 
L 213.903944 162.379478 
L 194.846173 162.379478 
z
" clip-path="url(#pab350b6dc0)" style="fill: #2ca02c"/>
   </g>
   <g id="patch_53">
    <path d="M 271.077258 158.340711 
L 290.135029 158.340711 
L 290.135029 166.136471 
L 271.077258 166.136471 
z
" clip-path="url(#pab350b6dc0)" style="fill: #2ca02c"/>
   </g>
   <g id="patch_54">
    <path d="M 347.308343 158.340711 
L 366.366114 158.340711 
L 366.366114 171.95981 
L 347.308343 171.95981 
z
" clip-path="url(#pab350b6dc0)" style="fill: #2ca02c"/>
   </g>
   <g id="patch_55">
    <path d="M 423.539428 158.340711 
L 442.597199 158.340711 
L 442.597199 187.175632 
L 423.539428 187.175632 
z
" clip-path="url(#pab350b6dc0)" style="fill: #2ca02c"/>
   </g>
   <g id="patch_56">
    <path d="M 499.770513 158.340711 
L 518.828284 158.340711 
L 518.828284 211.408236 
L 499.770513 211.408236 
z
" clip-path="url(#pab350b6dc0)" style="fill: #2ca02c"/>
   </g>
   <g id="patch_57">
    <path d="M 576.001598 158.340711 
L 595.05937 158.340711 
L 595.05937 248.978165 
L 576.001598 248.978165 
z
" clip-path="url(#pab350b6dc0)" style="fill: #2ca02c"/>
   </g>
   <g id="patch_58">
    <path d="M 652.232683 158.340711 
L 671.290455 158.340711 
L 671.290455 314.72554 
L 652.232683 314.72554 
z
" clip-path="url(#pab350b6dc0)" style="fill: #2ca02c"/>
   </g>
   <g id="matplotlib.axis_3">
    <g id="xtick_9">
     <g id="line2d_25">
      <g>
       <use xlink:href="#m48a31d09ac" x="109.086202" y="534.04" style="stroke: #000000; stroke-width: 0.8"/>
      </g>
     </g>
     <g id="text_13">
      <!-- 0 -->
      <g transform="translate(105.904952 548.638438) scale(0.1 -0.1)">
       <use xlink:href="#DejaVuSans-30"/>
      </g>
     </g>
    </g>
    <g id="xtick_10">
     <g id="line2d_26">
      <g>
       <use xlink:href="#m48a31d09ac" x="185.317287" y="534.04" style="stroke: #000000; stroke-width: 0.8"/>
      </g>
     </g>
     <g id="text_14">
      <!-- 10 -->
      <g transform="translate(178.954787 548.638438) scale(0.1 -0.1)">
       <use xlink:href="#DejaVuSans-31"/>
       <use xlink:href="#DejaVuSans-30" transform="translate(63.623047 0)"/>
      </g>
     </g>
    </g>
    <g id="xtick_11">
     <g id="line2d_27">
      <g>
       <use xlink:href="#m48a31d09ac" x="261.548372" y="534.04" style="stroke: #000000; stroke-width: 0.8"/>
      </g>
     </g>
     <g id="text_15">
      <!-- 20 -->
      <g transform="translate(255.185872 548.638438) scale(0.1 -0.1)">
       <use xlink:href="#DejaVuSans-32"/>
       <use xlink:href="#DejaVuSans-30" transform="translate(63.623047 0)"/>
      </g>
     </g>
    </g>
    <g id="xtick_12">
     <g id="line2d_28">
      <g>
       <use xlink:href="#m48a31d09ac" x="337.779457" y="534.04" style="stroke: #000000; stroke-width: 0.8"/>
      </g>
     </g>
     <g id="text_16">
      <!-- 40 -->
      <g transform="translate(331.416957 548.638438) scale(0.1 -0.1)">
       <use xlink:href="#DejaVuSans-34"/>
       <use xlink:href="#DejaVuSans-30" transform="translate(63.623047 0)"/>
      </g>
     </g>
    </g>
    <g id="xtick_13">
     <g id="line2d_29">
      <g>
       <use xlink:href="#m48a31d09ac" x="414.010543" y="534.04" style="stroke: #000000; stroke-width: 0.8"/>
      </g>
     </g>
     <g id="text_17">
      <!-- 80 -->
      <g transform="translate(407.648043 548.638438) scale(0.1 -0.1)">
       <use xlink:href="#DejaVuSans-38"/>
       <use xlink:href="#DejaVuSans-30" transform="translate(63.623047 0)"/>
      </g>
     </g>
    </g>
    <g id="xtick_14">
     <g id="line2d_30">
      <g>
       <use xlink:href="#m48a31d09ac" x="490.241628" y="534.04" style="stroke: #000000; stroke-width: 0.8"/>
      </g>
     </g>
     <g id="text_18">
      <!-- 160 -->
      <g transform="translate(480.697878 548.638438) scale(0.1 -0.1)">
       <use xlink:href="#DejaVuSans-31"/>
       <use xlink:href="#DejaVuSans-36" transform="translate(63.623047 0)"/>
       <use xlink:href="#DejaVuSans-30" transform="translate(127.246094 0)"/>
      </g>
     </g>
    </g>
    <g id="xtick_15">
     <g id="line2d_31">
      <g>
       <use xlink:href="#m48a31d09ac" x="566.472713" y="534.04" style="stroke: #000000; stroke-width: 0.8"/>
      </g>
     </g>
     <g id="text_19">
      <!-- 320 -->
      <g transform="translate(556.928963 548.638438) scale(0.1 -0.1)">
       <use xlink:href="#DejaVuSans-33"/>
       <use xlink:href="#DejaVuSans-32" transform="translate(63.623047 0)"/>
       <use xlink:href="#DejaVuSans-30" transform="translate(127.246094 0)"/>
      </g>
     </g>
    </g>
    <g id="xtick_16">
     <g id="line2d_32">
      <g>
       <use xlink:href="#m48a31d09ac" x="642.703798" y="534.04" style="stroke: #000000; stroke-width: 0.8"/>
      </g>
     </g>
     <g id="text_20">
      <!-- 640 -->
      <g transform="translate(633.160048 548.638438) scale(0.1 -0.1)">
       <use xlink:href="#DejaVuSans-36"/>
       <use xlink:href="#DejaVuSans-34" transform="translate(63.623047 0)"/>
       <use xlink:href="#DejaVuSans-30" transform="translate(127.246094 0)"/>
      </g>
     </g>
    </g>
    <g id="text_21">
     <!-- Number of Errors -->
     <g transform="translate(333.021562 562.316563) scale(0.1 -0.1)">
      <defs>
       <path id="DejaVuSans-66" d="M 2375 4863 
L 2375 4384 
L 1825 4384 
Q 1516 4384 1395 4259 
Q 1275 4134 1275 3809 
L 1275 3500 
L 2222 3500 
L 2222 3053 
L 1275 3053 
L 1275 0 
L 697 0 
L 697 3053 
L 147 3053 
L 147 3500 
L 697 3500 
L 697 3744 
Q 697 4328 969 4595 
Q 1241 4863 1831 4863 
L 2375 4863 
z
" transform="scale(0.015625)"/>
      </defs>
      <use xlink:href="#DejaVuSans-4e"/>
      <use xlink:href="#DejaVuSans-75" transform="translate(74.804688 0)"/>
      <use xlink:href="#DejaVuSans-6d" transform="translate(138.183594 0)"/>
      <use xlink:href="#DejaVuSans-62" transform="translate(235.595703 0)"/>
      <use xlink:href="#DejaVuSans-65" transform="translate(299.072266 0)"/>
      <use xlink:href="#DejaVuSans-72" transform="translate(360.595703 0)"/>
      <use xlink:href="#DejaVuSans-20" transform="translate(401.708984 0)"/>
      <use xlink:href="#DejaVuSans-6f" transform="translate(433.496094 0)"/>
      <use xlink:href="#DejaVuSans-66" transform="translate(494.677734 0)"/>
      <use xlink:href="#DejaVuSans-20" transform="translate(529.882812 0)"/>
      <use xlink:href="#DejaVuSans-45" transform="translate(561.669922 0)"/>
      <use xlink:href="#DejaVuSans-72" transform="translate(624.853516 0)"/>
      <use xlink:href="#DejaVuSans-72" transform="translate(664.216797 0)"/>
      <use xlink:href="#DejaVuSans-6f" transform="translate(703.080078 0)"/>
      <use xlink:href="#DejaVuSans-72" transform="translate(764.261719 0)"/>
      <use xlink:href="#DejaVuSans-73" transform="translate(805.375 0)"/>
     </g>
    </g>
   </g>
   <g id="matplotlib.axis_4">
    <g id="ytick_9">
     <g id="line2d_33">
      <g>
       <use xlink:href="#m6f5d617708" x="50.96" y="421.330213" style="stroke: #000000; stroke-width: 0.8"/>
      </g>
     </g>
     <g id="text_22">
      <!-- 700 -->
      <g transform="translate(24.8725 425.129432) scale(0.1 -0.1)">
       <defs>
        <path id="DejaVuSans-37" d="M 525 4666 
L 3525 4666 
L 3525 4397 
L 1831 0 
L 1172 0 
L 2766 4134 
L 525 4134 
L 525 4666 
z
" transform="scale(0.015625)"/>
       </defs>
       <use xlink:href="#DejaVuSans-37"/>
       <use xlink:href="#DejaVuSans-30" transform="translate(63.623047 0)"/>
       <use xlink:href="#DejaVuSans-30" transform="translate(127.246094 0)"/>
      </g>
     </g>
    </g>
    <g id="ytick_10">
     <g id="line2d_34">
      <g>
       <use xlink:href="#m6f5d617708" x="50.96" y="458.900142" style="stroke: #000000; stroke-width: 0.8"/>
      </g>
     </g>
     <g id="text_23">
      <!-- 800 -->
      <g transform="translate(24.8725 462.699361) scale(0.1 -0.1)">
       <use xlink:href="#DejaVuSans-38"/>
       <use xlink:href="#DejaVuSans-30" transform="translate(63.623047 0)"/>
       <use xlink:href="#DejaVuSans-30" transform="translate(127.246094 0)"/>
      </g>
     </g>
    </g>
    <g id="ytick_11">
     <g id="line2d_35">
      <g>
       <use xlink:href="#m6f5d617708" x="50.96" y="496.470071" style="stroke: #000000; stroke-width: 0.8"/>
      </g>
     </g>
     <g id="text_24">
      <!-- 900 -->
      <g transform="translate(24.8725 500.26929) scale(0.1 -0.1)">
       <defs>
        <path id="DejaVuSans-39" d="M 703 97 
L 703 672 
Q 941 559 1184 500 
Q 1428 441 1663 441 
Q 2288 441 2617 861 
Q 2947 1281 2994 2138 
Q 2813 1869 2534 1725 
Q 2256 1581 1919 1581 
Q 1219 1581 811 2004 
Q 403 2428 403 3163 
Q 403 3881 828 4315 
Q 1253 4750 1959 4750 
Q 2769 4750 3195 4129 
Q 3622 3509 3622 2328 
Q 3622 1225 3098 567 
Q 2575 -91 1691 -91 
Q 1453 -91 1209 -44 
Q 966 3 703 97 
z
M 1959 2075 
Q 2384 2075 2632 2365 
Q 2881 2656 2881 3163 
Q 2881 3666 2632 3958 
Q 2384 4250 1959 4250 
Q 1534 4250 1286 3958 
Q 1038 3666 1038 3163 
Q 1038 2656 1286 2365 
Q 1534 2075 1959 2075 
z
" transform="scale(0.015625)"/>
       </defs>
       <use xlink:href="#DejaVuSans-39"/>
       <use xlink:href="#DejaVuSans-30" transform="translate(63.623047 0)"/>
       <use xlink:href="#DejaVuSans-30" transform="translate(127.246094 0)"/>
      </g>
     </g>
    </g>
    <g id="ytick_12">
     <g id="line2d_36">
      <g>
       <use xlink:href="#m6f5d617708" x="50.96" y="534.04" style="stroke: #000000; stroke-width: 0.8"/>
      </g>
     </g>
     <g id="text_25">
      <!-- 1000 -->
      <g transform="translate(18.51 537.839219) scale(0.1 -0.1)">
       <use xlink:href="#DejaVuSans-31"/>
       <use xlink:href="#DejaVuSans-30" transform="translate(63.623047 0)"/>
       <use xlink:href="#DejaVuSans-30" transform="translate(127.246094 0)"/>
       <use xlink:href="#DejaVuSans-30" transform="translate(190.869141 0)"/>
      </g>
     </g>
    </g>
   </g>
   <g id="LineCollection_4">
    <path d="M 90.028431 158.340711 
L 90.028431 158.340711 
" clip-path="url(#pab350b6dc0)" style="fill: none; stroke: #000000; stroke-width: 1.5"/>
    <path d="M 166.259516 162.028946 
L 166.259516 162.354311 
" clip-path="url(#pab350b6dc0)" style="fill: none; stroke: #000000; stroke-width: 1.5"/>
    <path d="M 242.490601 165.589037 
L 242.490601 166.120356 
" clip-path="url(#pab350b6dc0)" style="fill: none; stroke: #000000; stroke-width: 1.5"/>
    <path d="M 318.721686 173.299925 
L 318.721686 173.62529 
" clip-path="url(#pab350b6dc0)" style="fill: none; stroke: #000000; stroke-width: 1.5"/>
    <path d="M 394.952771 188.130995 
L 394.952771 188.662314 
" clip-path="url(#pab350b6dc0)" style="fill: none; stroke: #000000; stroke-width: 1.5"/>
    <path d="M 471.183856 217.195805 
L 471.183856 218.957991 
" clip-path="url(#pab350b6dc0)" style="fill: none; stroke: #000000; stroke-width: 1.5"/>
    <path d="M 547.414941 275.598044 
L 547.414941 278.713178 
" clip-path="url(#pab350b6dc0)" style="fill: none; stroke: #000000; stroke-width: 1.5"/>
    <path d="M 623.646026 395.821817 
L 623.646026 398.936951 
" clip-path="url(#pab350b6dc0)" style="fill: none; stroke: #000000; stroke-width: 1.5"/>
   </g>
   <g id="line2d_37">
    <g clip-path="url(#pab350b6dc0)">
     <use xlink:href="#m0518688fd8" x="90.028431" y="158.340711" style="stroke: #000000"/>
     <use xlink:href="#m0518688fd8" x="166.259516" y="162.028946" style="stroke: #000000"/>
     <use xlink:href="#m0518688fd8" x="242.490601" y="165.589037" style="stroke: #000000"/>
     <use xlink:href="#m0518688fd8" x="318.721686" y="173.299925" style="stroke: #000000"/>
     <use xlink:href="#m0518688fd8" x="394.952771" y="188.130995" style="stroke: #000000"/>
     <use xlink:href="#m0518688fd8" x="471.183856" y="217.195805" style="stroke: #000000"/>
     <use xlink:href="#m0518688fd8" x="547.414941" y="275.598044" style="stroke: #000000"/>
     <use xlink:href="#m0518688fd8" x="623.646026" y="395.821817" style="stroke: #000000"/>
    </g>
   </g>
   <g id="line2d_38">
    <g clip-path="url(#pab350b6dc0)">
     <use xlink:href="#m0518688fd8" x="90.028431" y="158.340711" style="stroke: #000000"/>
     <use xlink:href="#m0518688fd8" x="166.259516" y="162.354311" style="stroke: #000000"/>
     <use xlink:href="#m0518688fd8" x="242.490601" y="166.120356" style="stroke: #000000"/>
     <use xlink:href="#m0518688fd8" x="318.721686" y="173.62529" style="stroke: #000000"/>
     <use xlink:href="#m0518688fd8" x="394.952771" y="188.662314" style="stroke: #000000"/>
     <use xlink:href="#m0518688fd8" x="471.183856" y="218.957991" style="stroke: #000000"/>
     <use xlink:href="#m0518688fd8" x="547.414941" y="278.713178" style="stroke: #000000"/>
     <use xlink:href="#m0518688fd8" x="623.646026" y="398.936951" style="stroke: #000000"/>
    </g>
   </g>
   <g id="LineCollection_5">
    <path d="M 109.086202 158.340711 
L 109.086202 158.340711 
" clip-path="url(#pab350b6dc0)" style="fill: none; stroke: #000000; stroke-width: 1.5"/>
    <path d="M 185.317287 162.028946 
L 185.317287 162.354311 
" clip-path="url(#pab350b6dc0)" style="fill: none; stroke: #000000; stroke-width: 1.5"/>
    <path d="M 261.548372 165.785939 
L 261.548372 166.111304 
" clip-path="url(#pab350b6dc0)" style="fill: none; stroke: #000000; stroke-width: 1.5"/>
    <path d="M 337.779457 173.338944 
L 337.779457 173.961971 
" clip-path="url(#pab350b6dc0)" style="fill: none; stroke: #000000; stroke-width: 1.5"/>
    <path d="M 414.010543 188.312218 
L 414.010543 189.232489 
" clip-path="url(#pab350b6dc0)" style="fill: none; stroke: #000000; stroke-width: 1.5"/>
    <path d="M 490.241628 218.341263 
L 490.241628 219.878879 
" clip-path="url(#pab350b6dc0)" style="fill: none; stroke: #000000; stroke-width: 1.5"/>
    <path d="M 566.472713 278.518904 
L 566.472713 280.112861 
" clip-path="url(#pab350b6dc0)" style="fill: none; stroke: #000000; stroke-width: 1.5"/>
    <path d="M 642.703798 398.577281 
L 642.703798 400.126329 
" clip-path="url(#pab350b6dc0)" style="fill: none; stroke: #000000; stroke-width: 1.5"/>
   </g>
   <g id="line2d_39">
    <g clip-path="url(#pab350b6dc0)">
     <use xlink:href="#m0518688fd8" x="109.086202" y="158.340711" style="stroke: #000000"/>
     <use xlink:href="#m0518688fd8" x="185.317287" y="162.028946" style="stroke: #000000"/>
     <use xlink:href="#m0518688fd8" x="261.548372" y="165.785939" style="stroke: #000000"/>
     <use xlink:href="#m0518688fd8" x="337.779457" y="173.338944" style="stroke: #000000"/>
     <use xlink:href="#m0518688fd8" x="414.010543" y="188.312218" style="stroke: #000000"/>
     <use xlink:href="#m0518688fd8" x="490.241628" y="218.341263" style="stroke: #000000"/>
     <use xlink:href="#m0518688fd8" x="566.472713" y="278.518904" style="stroke: #000000"/>
     <use xlink:href="#m0518688fd8" x="642.703798" y="398.577281" style="stroke: #000000"/>
    </g>
   </g>
   <g id="line2d_40">
    <g clip-path="url(#pab350b6dc0)">
     <use xlink:href="#m0518688fd8" x="109.086202" y="158.340711" style="stroke: #000000"/>
     <use xlink:href="#m0518688fd8" x="185.317287" y="162.354311" style="stroke: #000000"/>
     <use xlink:href="#m0518688fd8" x="261.548372" y="166.111304" style="stroke: #000000"/>
     <use xlink:href="#m0518688fd8" x="337.779457" y="173.961971" style="stroke: #000000"/>
     <use xlink:href="#m0518688fd8" x="414.010543" y="189.232489" style="stroke: #000000"/>
     <use xlink:href="#m0518688fd8" x="490.241628" y="219.878879" style="stroke: #000000"/>
     <use xlink:href="#m0518688fd8" x="566.472713" y="280.112861" style="stroke: #000000"/>
     <use xlink:href="#m0518688fd8" x="642.703798" y="400.126329" style="stroke: #000000"/>
    </g>
   </g>
   <g id="LineCollection_6">
    <path d="M 128.143974 158.203196 
L 128.143974 158.853926 
" clip-path="url(#pab350b6dc0)" style="fill: none; stroke: #000000; stroke-width: 1.5"/>
    <path d="M 204.375059 162.067965 
L 204.375059 162.690992 
" clip-path="url(#pab350b6dc0)" style="fill: none; stroke: #000000; stroke-width: 1.5"/>
    <path d="M 280.606144 165.824958 
L 280.606144 166.447985 
" clip-path="url(#pab350b6dc0)" style="fill: none; stroke: #000000; stroke-width: 1.5"/>
    <path d="M 356.837229 170.821032 
L 356.837229 173.098588 
" clip-path="url(#pab350b6dc0)" style="fill: none; stroke: #000000; stroke-width: 1.5"/>
    <path d="M 433.068314 185.891229 
L 433.068314 188.460034 
" clip-path="url(#pab350b6dc0)" style="fill: none; stroke: #000000; stroke-width: 1.5"/>
    <path d="M 509.299399 206.550406 
L 509.299399 216.266065 
" clip-path="url(#pab350b6dc0)" style="fill: none; stroke: #000000; stroke-width: 1.5"/>
    <path d="M 585.530484 231.691149 
L 585.530484 266.265181 
" clip-path="url(#pab350b6dc0)" style="fill: none; stroke: #000000; stroke-width: 1.5"/>
    <path d="M 661.761569 265.359758 
L 661.761569 364.091322 
" clip-path="url(#pab350b6dc0)" style="fill: none; stroke: #000000; stroke-width: 1.5"/>
   </g>
   <g id="line2d_41">
    <g clip-path="url(#pab350b6dc0)">
     <use xlink:href="#m0518688fd8" x="128.143974" y="158.203196" style="stroke: #000000"/>
     <use xlink:href="#m0518688fd8" x="204.375059" y="162.067965" style="stroke: #000000"/>
     <use xlink:href="#m0518688fd8" x="280.606144" y="165.824958" style="stroke: #000000"/>
     <use xlink:href="#m0518688fd8" x="356.837229" y="170.821032" style="stroke: #000000"/>
     <use xlink:href="#m0518688fd8" x="433.068314" y="185.891229" style="stroke: #000000"/>
     <use xlink:href="#m0518688fd8" x="509.299399" y="206.550406" style="stroke: #000000"/>
     <use xlink:href="#m0518688fd8" x="585.530484" y="231.691149" style="stroke: #000000"/>
     <use xlink:href="#m0518688fd8" x="661.761569" y="265.359758" style="stroke: #000000"/>
    </g>
   </g>
   <g id="line2d_42">
    <g clip-path="url(#pab350b6dc0)">
     <use xlink:href="#m0518688fd8" x="128.143974" y="158.853926" style="stroke: #000000"/>
     <use xlink:href="#m0518688fd8" x="204.375059" y="162.690992" style="stroke: #000000"/>
     <use xlink:href="#m0518688fd8" x="280.606144" y="166.447985" style="stroke: #000000"/>
     <use xlink:href="#m0518688fd8" x="356.837229" y="173.098588" style="stroke: #000000"/>
     <use xlink:href="#m0518688fd8" x="433.068314" y="188.460034" style="stroke: #000000"/>
     <use xlink:href="#m0518688fd8" x="509.299399" y="216.266065" style="stroke: #000000"/>
     <use xlink:href="#m0518688fd8" x="585.530484" y="266.265181" style="stroke: #000000"/>
     <use xlink:href="#m0518688fd8" x="661.761569" y="364.091322" style="stroke: #000000"/>
    </g>
   </g>
   <g id="line2d_43">
    <path d="M 41.21195 414.042976 
L 60.70805 410.388244 
" style="fill: none; stroke: #000000; stroke-width: 1.5; stroke-linecap: square"/>
   </g>
   <g id="line2d_44">
    <path d="M 691.08195 414.042976 
L 710.57805 410.388244 
" style="fill: none; stroke: #000000; stroke-width: 1.5; stroke-linecap: square"/>
   </g>
   <g id="patch_59">
    <path d="M 50.96 534.04 
L 50.96 412.21561 
" style="fill: none; stroke: #000000; stroke-width: 0.8; stroke-linejoin: miter; stroke-linecap: square"/>
   </g>
   <g id="patch_60">
    <path d="M 700.83 534.04 
L 700.83 412.21561 
" style="fill: none; stroke: #000000; stroke-width: 0.8; stroke-linejoin: miter; stroke-linecap: square"/>
   </g>
   <g id="patch_61">
    <path d="M 50.96 534.04 
L 700.83 534.04 
" style="fill: none; stroke: #000000; stroke-width: 0.8; stroke-linejoin: miter; stroke-linecap: square"/>
   </g>
  </g>
  <g id="text_26">
   <!-- Averaged Detected Error vs. Number of Errors -->
   <g transform="translate(221.761875 20.638125) scale(0.12 -0.12)">
    <defs>
     <path id="DejaVuSans-2e" d="M 684 794 
L 1344 794 
L 1344 0 
L 684 0 
L 684 794 
z
" transform="scale(0.015625)"/>
    </defs>
    <use xlink:href="#DejaVuSans-41"/>
    <use xlink:href="#DejaVuSans-76" transform="translate(62.533203 0)"/>
    <use xlink:href="#DejaVuSans-65" transform="translate(121.712891 0)"/>
    <use xlink:href="#DejaVuSans-72" transform="translate(183.236328 0)"/>
    <use xlink:href="#DejaVuSans-61" transform="translate(224.349609 0)"/>
    <use xlink:href="#DejaVuSans-67" transform="translate(285.628906 0)"/>
    <use xlink:href="#DejaVuSans-65" transform="translate(349.105469 0)"/>
    <use xlink:href="#DejaVuSans-64" transform="translate(410.628906 0)"/>
    <use xlink:href="#DejaVuSans-20" transform="translate(474.105469 0)"/>
    <use xlink:href="#DejaVuSans-44" transform="translate(505.892578 0)"/>
    <use xlink:href="#DejaVuSans-65" transform="translate(582.894531 0)"/>
    <use xlink:href="#DejaVuSans-74" transform="translate(644.417969 0)"/>
    <use xlink:href="#DejaVuSans-65" transform="translate(683.626953 0)"/>
    <use xlink:href="#DejaVuSans-63" transform="translate(745.150391 0)"/>
    <use xlink:href="#DejaVuSans-74" transform="translate(800.130859 0)"/>
    <use xlink:href="#DejaVuSans-65" transform="translate(839.339844 0)"/>
    <use xlink:href="#DejaVuSans-64" transform="translate(900.863281 0)"/>
    <use xlink:href="#DejaVuSans-20" transform="translate(964.339844 0)"/>
    <use xlink:href="#DejaVuSans-45" transform="translate(996.126953 0)"/>
    <use xlink:href="#DejaVuSans-72" transform="translate(1059.310547 0)"/>
    <use xlink:href="#DejaVuSans-72" transform="translate(1098.673828 0)"/>
    <use xlink:href="#DejaVuSans-6f" transform="translate(1137.537109 0)"/>
    <use xlink:href="#DejaVuSans-72" transform="translate(1198.71875 0)"/>
    <use xlink:href="#DejaVuSans-20" transform="translate(1239.832031 0)"/>
    <use xlink:href="#DejaVuSans-76" transform="translate(1271.619141 0)"/>
    <use xlink:href="#DejaVuSans-73" transform="translate(1330.798828 0)"/>
    <use xlink:href="#DejaVuSans-2e" transform="translate(1382.898438 0)"/>
    <use xlink:href="#DejaVuSans-20" transform="translate(1414.685547 0)"/>
    <use xlink:href="#DejaVuSans-4e" transform="translate(1446.472656 0)"/>
    <use xlink:href="#DejaVuSans-75" transform="translate(1521.277344 0)"/>
    <use xlink:href="#DejaVuSans-6d" transform="translate(1584.65625 0)"/>
    <use xlink:href="#DejaVuSans-62" transform="translate(1682.068359 0)"/>
    <use xlink:href="#DejaVuSans-65" transform="translate(1745.544922 0)"/>
    <use xlink:href="#DejaVuSans-72" transform="translate(1807.068359 0)"/>
    <use xlink:href="#DejaVuSans-20" transform="translate(1848.181641 0)"/>
    <use xlink:href="#DejaVuSans-6f" transform="translate(1879.96875 0)"/>
    <use xlink:href="#DejaVuSans-66" transform="translate(1941.150391 0)"/>
    <use xlink:href="#DejaVuSans-20" transform="translate(1976.355469 0)"/>
    <use xlink:href="#DejaVuSans-45" transform="translate(2008.142578 0)"/>
    <use xlink:href="#DejaVuSans-72" transform="translate(2071.326172 0)"/>
    <use xlink:href="#DejaVuSans-72" transform="translate(2110.689453 0)"/>
    <use xlink:href="#DejaVuSans-6f" transform="translate(2149.552734 0)"/>
    <use xlink:href="#DejaVuSans-72" transform="translate(2210.734375 0)"/>
    <use xlink:href="#DejaVuSans-73" transform="translate(2251.847656 0)"/>
   </g>
  </g>
 </g>
 <defs>
  <clipPath id="pdc5a7bd860">
   <rect x="50.96" y="34.56" width="649.87" height="365.473171"/>
  </clipPath>
  <clipPath id="pab350b6dc0">
   <rect x="50.96" y="412.21561" width="649.87" height="121.82439"/>
  </clipPath>
 </defs>
</svg>
